<svg xmlns="http://www.w3.org/2000/svg" viewBox="0 0 128 128" role="img" aria-labelledby="title desc">
  <title>Yurotlas Logo</title>
  <desc>Abgerundetes Quadrat mit Standort-Pin und Stern</desc>
  <defs>
    <linearGradient id="bg" x1="0" x2="1" y1="0" y2="1">
      <stop offset="0%" stop-color="#0f172a"/>
      <stop offset="100%" stop-color="#0b1220"/>
    </linearGradient>
    <linearGradient id="accent" x1="0" x2="1" y1="0" y2="1">
      <stop offset="0%" stop-color="#67e8f9"/>
      <stop offset="100%" stop-color="#0ea5e9"/>
    </linearGradient>
    <filter id="shadow" x="-20%" y="-20%" width="140%" height="140%">
      <feDropShadow dx="0" dy="8" stdDeviation="8" flood-color="#000000" flood-opacity="0.28"/>
    </filter>
  </defs>
  <rect x="10" y="10" width="108" height="108" rx="30" fill="url(#bg)" stroke="#38bdf8" stroke-opacity="0.35" stroke-width="4"/>
  <circle cx="64" cy="44" r="24" fill="url(#accent)" opacity="0.16"/>
  <path filter="url(#shadow)" d="M64 24c-13.255 0-24 10.745-24 24 0 16.666 24 41.333 24 41.333S88 64.666 88 48C88 34.745 77.255 24 64 24Zm0 32a8 8 0 1 1 0-16 8 8 0 0 1 0 16Z" fill="url(#accent)"/>
  <path d="m89.5 27 3.2 6.6 7.3 1.1-5.3 5.2 1.3 7.3-6.5-3.5-6.6 3.5 1.3-7.3-5.3-5.2 7.3-1.1z" fill="#f8fbff"/>
  <path d="M36 98h56" stroke="#38bdf8" stroke-opacity="0.25" stroke-width="4" stroke-linecap="round"/>
</svg>